<?xml version="1.0" standalone="no"?>
<!DOCTYPE svg PUBLIC "-//W3C//DTD SVG 20010904//EN"
 "http://www.w3.org/TR/2001/REC-SVG-20010904/DTD/svg10.dtd">
<svg version="1.0" xmlns="http://www.w3.org/2000/svg"
 width="3440.000000pt" height="3440.000000pt" viewBox="0 0 3440.000000 3440.000000"
 preserveAspectRatio="xMidYMid meet">
<metadata>
Created by potrace 1.11, written by Peter Selinger 2001-2013
</metadata>
<g transform="translate(0.000000,3440.000000) scale(0.100000,-0.100000)"
fill="#000000" stroke="none">
<path d="M17048 32734 c-2 -1 -79 -5 -171 -9 -93 -3 -176 -8 -185 -10 -10 -1
-57 -6 -107 -9 -49 -4 -101 -9 -115 -11 -14 -2 -54 -6 -90 -10 -36 -3 -90 -10
-120 -15 -30 -5 -77 -12 -105 -15 -49 -6 -102 -14 -134 -20 -9 -1 -36 -6 -61
-10 -52 -8 -48 -8 -160 -29 -47 -9 -96 -18 -110 -22 -14 -3 -34 -7 -45 -8 -51
-9 -297 -69 -495 -121 -235 -61 -776 -249 -995 -345 -586 -257 -989 -472
-1452 -777 -261 -171 -592 -416 -818 -605 -260 -216 -434 -376 -690 -633 -234
-235 -305 -311 -522 -561 -56 -64 -233 -280 -273 -333 -14 -18 -34 -45 -46
-59 -11 -15 -46 -61 -77 -102 -31 -41 -60 -79 -65 -85 -73 -90 -358 -513 -489
-725 -88 -142 -303 -513 -303 -523 0 -3 -16 -34 -36 -69 -38 -67 -208 -402
-242 -478 -11 -25 -37 -81 -57 -125 -96 -208 -239 -553 -305 -736 -23 -63 -47
-130 -55 -149 -48 -123 -198 -567 -279 -831 -89 -288 -251 -883 -280 -1029 -3
-14 -18 -84 -35 -157 -17 -72 -32 -142 -35 -155 -2 -12 -11 -55 -20 -93 -8
-39 -17 -82 -19 -95 -3 -14 -17 -88 -32 -165 -44 -234 -54 -287 -65 -355 -5
-36 -12 -76 -14 -90 -6 -32 -26 -166 -31 -203 -2 -15 -7 -47 -10 -70 -3 -23
-8 -53 -10 -67 -2 -14 -7 -47 -10 -75 -4 -27 -8 -61 -10 -75 -2 -14 -6 -53
-10 -87 -3 -34 -7 -70 -9 -80 -2 -10 -7 -52 -11 -93 -4 -41 -8 -82 -10 -90 -2
-8 -6 -49 -10 -90 -3 -41 -8 -86 -10 -100 -2 -14 -7 -68 -10 -120 -4 -52 -8
-111 -10 -130 -2 -19 -7 -80 -10 -135 -4 -55 -8 -125 -10 -155 -28 -410 -28
-1364 0 -1820 8 -144 16 -259 20 -300 2 -25 7 -79 10 -120 6 -76 11 -131 20
-217 3 -27 7 -73 10 -103 8 -75 44 -390 50 -431 5 -38 31 -230 41 -299 6 -50
8 -60 29 -181 8 -47 17 -98 19 -115 3 -28 61 -357 70 -399 2 -11 16 -80 30
-152 28 -143 89 -420 131 -598 33 -138 29 -121 60 -245 15 -58 28 -113 30
-123 2 -9 6 -21 9 -25 3 -5 7 -19 9 -33 7 -35 36 -150 46 -179 5 -14 19 -61
31 -105 84 -308 291 -954 405 -1265 140 -384 333 -872 400 -1018 14 -29 25
-54 25 -57 0 -4 102 -235 150 -340 15 -33 58 -127 96 -210 77 -169 399 -818
466 -940 25 -44 66 -120 92 -169 58 -109 177 -322 268 -481 l69 -119 -70 -141
c-252 -501 -317 -1016 -200 -1565 22 -101 90 -321 114 -367 8 -15 15 -32 15
-36 0 -5 27 -63 61 -130 69 -138 175 -304 270 -422 72 -90 249 -270 324 -330
28 -22 52 -42 55 -46 3 -3 28 -21 55 -40 28 -18 52 -37 55 -40 12 -14 195
-121 276 -162 135 -68 219 -103 349 -143 44 -13 94 -28 110 -34 60 -19 256
-53 372 -66 228 -24 570 2 793 61 173 45 336 106 465 173 28 14 64 32 80 40
83 42 280 175 359 242 224 191 386 377 519 595 103 171 211 412 247 555 57
227 76 337 86 485 10 155 5 396 -11 475 -3 14 -7 42 -10 62 -39 301 -196 695
-384 963 -109 155 -271 334 -401 444 -30 25 -64 54 -75 64 -85 77 -389 256
-550 323 -123 52 -358 121 -475 139 -25 4 -54 9 -65 11 -19 4 -46 8 -146 20
-108 12 -408 6 -499 -12 -86 -16 -87 -16 -120 37 -16 27 -30 51 -30 53 0 2
-17 33 -39 68 -21 35 -51 87 -67 116 -16 29 -33 61 -39 70 -14 25 -145 263
-194 354 -140 260 -395 790 -526 1093 -26 61 -58 133 -70 160 -12 28 -68 167
-125 310 -56 143 -106 269 -111 280 -45 106 -230 650 -310 913 -124 411 -292
1064 -334 1301 -3 19 -7 37 -9 40 -2 3 -7 22 -10 41 -9 52 -15 88 -31 165 -17
87 -22 114 -35 190 -14 83 -20 116 -25 145 -10 50 -13 66 -19 115 -4 28 -9 57
-11 65 -5 18 -10 57 -31 205 -8 61 -17 121 -19 135 -3 14 -7 50 -11 80 -3 30
-8 63 -9 72 -2 9 -7 48 -10 85 -4 37 -9 75 -10 84 -2 9 -6 52 -10 95 -4 43 -9
87 -11 97 -2 10 -6 53 -9 95 -4 42 -8 88 -10 102 -2 14 -7 68 -10 120 -4 52
-8 111 -10 130 -2 19 -7 89 -11 155 -3 66 -8 140 -10 165 -25 396 -25 1401 1
1785 2 33 7 110 10 170 4 61 8 126 10 145 1 19 5 78 9 130 4 52 9 111 11 130
2 19 6 69 10 110 3 41 8 86 10 100 2 14 6 54 9 90 4 36 8 75 11 88 2 13 7 53
10 90 3 37 8 74 10 82 2 8 7 38 10 65 3 28 7 61 10 75 2 14 6 45 10 70 13 88
18 122 39 245 9 50 18 108 21 130 4 22 8 47 10 55 2 8 7 31 10 50 11 66 76
385 85 415 5 17 11 44 13 60 10 70 146 586 215 815 51 168 164 503 225 665
203 539 445 1065 694 1505 11 19 35 62 53 95 50 90 206 348 268 445 105 162
187 285 227 341 22 31 47 66 55 78 131 194 436 586 579 746 64 71 314 318 395
390 118 105 330 274 453 359 59 42 113 79 118 83 11 9 60 42 86 58 9 5 41 26
70 46 170 113 465 277 722 402 97 48 179 87 181 87 2 0 37 15 78 34 40 18 132
57 203 86 72 28 150 60 175 71 193 80 722 246 980 307 83 20 135 32 155 38 6
1 33 7 60 13 28 6 59 12 70 15 85 20 325 65 385 72 19 3 46 7 60 9 14 3 59 9
101 15 41 6 84 12 95 14 10 2 51 7 89 10 39 4 86 9 105 11 40 5 147 14 235 21
68 5 497 5 565 0 152 -11 227 -18 240 -21 8 -2 44 -7 80 -10 36 -3 72 -8 80
-10 8 -2 35 -7 60 -10 156 -21 386 -71 580 -125 41 -11 80 -22 85 -24 6 -2 13
-4 17 -5 30 -7 304 -107 398 -146 507 -207 993 -510 1445 -900 123 -105 176
-156 350 -330 176 -176 218 -221 320 -340 33 -38 66 -76 73 -84 82 -87 385
-488 526 -696 119 -175 369 -583 444 -725 10 -19 42 -80 72 -135 59 -111 260
-512 260 -519 0 -2 18 -42 39 -88 194 -415 417 -1010 565 -1508 26 -85 51
-169 57 -187 5 -18 12 -40 14 -50 2 -10 11 -45 20 -78 18 -65 75 -291 80 -315
2 -8 10 -45 19 -81 8 -37 17 -78 20 -90 3 -13 9 -44 14 -69 19 -85 71 -365 77
-410 3 -25 8 -52 10 -60 2 -8 7 -35 10 -60 3 -25 8 -56 10 -70 6 -39 14 -100
20 -160 3 -30 8 -66 10 -80 2 -14 7 -68 10 -120 4 -52 10 -98 13 -101 4 -3 68
-21 142 -39 133 -32 544 -146 710 -197 404 -122 1044 -329 1170 -378 51 -20
86 -23 76 -7 -2 4 -7 48 -10 97 -7 96 -10 125 -21 250 -11 114 -12 123 -19
190 -4 33 -9 80 -11 105 -5 49 -14 130 -20 170 -2 14 -7 51 -10 83 -4 32 -8
68 -11 80 -2 12 -7 49 -10 82 -3 33 -8 62 -9 65 -2 3 -8 42 -14 86 -7 44 -13
89 -15 100 -2 10 -7 39 -10 64 -3 25 -8 54 -10 65 -2 11 -6 41 -10 66 -7 46
-11 72 -21 119 -3 14 -12 63 -20 110 -8 47 -17 96 -20 110 -7 36 -86 422 -90
440 -158 682 -287 1127 -492 1695 -59 164 -200 522 -243 620 -10 22 -45 101
-78 175 -304 685 -665 1321 -1076 1895 -55 77 -122 169 -150 205 -28 37 -62
82 -76 100 -32 43 -192 243 -199 250 -3 3 -28 32 -55 65 -85 102 -240 276
-361 404 -170 179 -378 381 -529 516 -178 157 -199 176 -284 243 -22 19 -51
43 -64 54 -48 42 -308 238 -438 330 -700 495 -1471 871 -2280 1113 -211 63
-491 130 -705 170 -118 21 -139 25 -295 50 -49 8 -115 16 -240 30 -30 3 -71 8
-90 10 -19 2 -75 7 -125 10 -49 4 -115 9 -145 11 -57 5 -618 12 -622 8z"/>
<path d="M15119 23106 c-2 -2 -39 -7 -82 -10 -105 -9 -308 -50 -443 -92 -352
-106 -689 -310 -959 -579 -73 -72 -193 -213 -235 -275 -13 -19 -27 -37 -31
-40 -8 -6 -102 -159 -143 -235 -102 -183 -220 -527 -242 -704 -3 -25 -7 -47
-9 -50 -18 -30 -26 -466 -12 -596 28 -241 92 -479 187 -695 41 -93 102 -210
131 -252 11 -14 19 -29 19 -32 0 -3 21 -36 47 -74 327 -473 785 -802 1321
-948 121 -33 137 -37 222 -49 25 -3 51 -8 58 -11 77 -25 529 -24 677 1 232 41
356 74 525 142 207 82 486 249 620 369 14 12 45 40 70 61 64 54 190 187 250
263 29 36 60 75 71 88 10 12 19 26 19 31 0 5 3 11 8 13 11 5 52 66 52 78 0 5
5 10 10 10 6 0 10 4 10 9 0 5 19 40 42 77 23 38 61 111 85 162 42 87 46 92 76
93 18 0 55 2 82 4 419 26 1276 27 1605 0 25 -2 95 -6 155 -10 61 -4 126 -8
145 -9 19 -2 76 -6 125 -10 50 -4 104 -9 120 -11 17 -2 65 -7 107 -10 43 -3
86 -8 96 -10 11 -2 55 -6 98 -10 43 -3 86 -8 94 -10 8 -2 40 -7 70 -10 61 -7
122 -14 160 -20 14 -2 50 -7 80 -10 30 -3 62 -8 70 -10 8 -2 40 -7 70 -11 30
-4 64 -8 75 -9 35 -5 388 -65 440 -75 28 -5 65 -12 84 -15 59 -10 334 -65 371
-75 19 -5 51 -11 70 -15 19 -3 40 -7 45 -8 6 -2 46 -11 90 -21 697 -159 1349
-355 2023 -608 177 -66 572 -223 647 -258 88 -40 157 -70 161 -70 3 0 33 -13
67 -29 34 -16 96 -44 137 -64 872 -401 1700 -872 2485 -1411 130 -89 486 -345
495 -356 3 -3 74 -59 157 -124 226 -175 505 -410 693 -582 30 -27 77 -70 105
-95 86 -77 557 -549 662 -664 635 -694 1167 -1442 1605 -2260 68 -127 249
-493 296 -600 22 -49 51 -115 65 -145 13 -30 46 -107 72 -170 26 -63 51 -124
56 -135 37 -85 166 -440 184 -505 3 -14 10 -34 15 -45 30 -65 165 -575 186
-700 3 -16 7 -37 10 -45 10 -30 67 -370 79 -470 39 -342 49 -498 48 -760 0
-152 -11 -432 -18 -469 -1 -9 -6 -51 -10 -94 -3 -43 -8 -86 -10 -95 -1 -9 -6
-44 -9 -77 -4 -33 -9 -67 -11 -75 -2 -8 -6 -31 -9 -50 -53 -347 -153 -714
-293 -1075 -222 -572 -623 -1236 -1063 -1764 -243 -292 -545 -589 -820 -810
-52 -42 -97 -78 -100 -81 -32 -33 -362 -261 -495 -342 -177 -109 -604 -338
-629 -338 -2 0 -37 -15 -78 -34 -114 -53 -343 -142 -505 -196 -123 -42 -429
-132 -491 -145 -9 -2 -79 -18 -155 -35 -127 -28 -344 -70 -442 -85 -67 -10
-247 -34 -300 -40 -27 -3 -66 -8 -85 -10 -19 -2 -75 -7 -125 -11 -49 -3 -106
-8 -125 -9 -324 -29 -1073 -18 -1367 20 -18 2 -63 6 -100 9 -37 4 -86 8 -108
11 -22 2 -62 7 -90 11 -27 3 -66 8 -85 11 -34 4 -44 6 -125 17 -46 7 -288 45
-325 51 -39 7 -79 15 -160 31 -41 8 -84 17 -95 18 -37 7 -180 37 -220 48 -22
5 -51 12 -65 15 -225 40 -1018 274 -1280 378 -19 7 -73 28 -120 45 -47 17 -94
35 -105 40 -11 5 -72 30 -135 55 -102 42 -143 59 -228 98 -16 8 -26 8 -30 1
-13 -20 -319 -287 -452 -395 -30 -24 -61 -50 -70 -58 -30 -29 -467 -377 -649
-518 -102 -79 -193 -149 -201 -156 -9 -7 -33 -25 -55 -41 -22 -17 -42 -32 -45
-36 -3 -3 -91 -70 -197 -150 -106 -80 -189 -148 -185 -152 9 -8 236 -112 411
-187 573 -247 1018 -409 1631 -595 354 -107 946 -248 1305 -310 130 -23 136
-24 175 -30 19 -3 46 -8 60 -10 22 -4 186 -29 275 -41 89 -13 274 -35 335 -40
25 -3 65 -7 90 -10 25 -2 74 -7 110 -10 36 -3 90 -7 120 -10 30 -3 91 -7 135
-10 44 -2 136 -8 205 -12 320 -18 1019 -7 1350 21 41 4 102 9 135 12 33 3 74
7 90 9 17 2 59 6 95 10 76 7 130 13 185 21 22 3 51 7 65 9 68 9 136 19 140 20
3 1 30 5 60 9 30 4 75 11 100 16 25 5 61 11 80 14 19 2 60 9 90 15 30 6 66 12
80 15 14 2 36 7 50 10 14 3 36 8 50 10 85 14 546 123 640 151 25 8 95 28 155
45 297 84 829 270 1040 364 17 8 80 35 140 61 307 132 733 348 995 504 423
252 910 590 1160 806 20 16 55 46 80 65 24 19 48 40 54 45 6 6 29 25 51 44
278 235 684 645 919 927 215 258 345 438 592 814 57 86 202 350 278 505 79
159 201 438 211 480 2 6 13 35 25 65 58 145 172 511 220 712 34 139 34 140 55
238 14 64 17 79 26 134 5 33 12 62 14 66 2 3 6 28 10 54 3 27 7 51 9 55 2 3 7
31 10 61 4 30 9 66 11 80 9 51 15 89 20 131 3 24 7 60 10 79 19 154 17 138 30
285 4 50 9 106 11 125 31 324 20 1089 -21 1460 -3 25 -7 66 -10 93 -8 75 -16
140 -20 167 -2 14 -9 68 -15 120 -7 52 -14 104 -16 115 -2 11 -13 74 -23 140
-61 374 -167 833 -282 1210 -90 296 -282 831 -359 1000 -5 11 -43 99 -86 195
-124 286 -406 844 -484 960 -9 14 -33 55 -53 93 -131 242 -457 734 -726 1097
-221 298 -627 786 -920 1105 -258 281 -615 645 -817 834 -49 45 -114 106 -144
135 -43 41 -175 160 -266 241 -6 6 -26 24 -45 40 -19 17 -79 69 -134 115 -55
47 -106 91 -113 98 -38 35 -390 317 -552 441 -102 77 -189 144 -195 149 -197
152 -756 534 -1028 703 -219 135 -394 241 -412 250 -11 5 -32 17 -47 27 -37
24 -365 207 -518 290 -115 62 -622 316 -725 364 -213 98 -264 122 -380 173
-66 29 -149 65 -185 80 -36 15 -83 35 -105 45 -286 130 -1156 444 -1575 570
-58 17 -116 35 -130 40 -50 19 -667 188 -745 205 -11 2 -29 6 -40 9 -36 10
-528 126 -549 130 -12 2 -109 22 -216 44 -107 22 -208 43 -225 46 -16 2 -66
11 -110 20 -162 30 -298 54 -353 62 -20 3 -62 9 -92 14 -30 5 -73 12 -95 15
-22 3 -65 10 -95 15 -30 5 -75 12 -100 15 -25 3 -58 7 -75 10 -39 6 -100 15
-150 21 -22 2 -51 7 -65 9 -14 2 -53 7 -87 10 -34 3 -71 8 -82 10 -11 2 -51 7
-88 10 -37 4 -76 9 -86 11 -10 2 -53 6 -95 10 -42 3 -84 8 -93 9 -8 2 -53 6
-100 10 -46 3 -100 8 -119 10 -19 3 -70 7 -113 10 -42 3 -94 7 -115 10 -21 2
-83 6 -138 10 -54 3 -124 8 -154 10 -48 3 -118 7 -365 20 -328 17 -1087 23
-1432 11 l-183 -6 -21 42 c-51 101 -191 300 -294 418 -53 61 -212 214 -270
260 -31 25 -62 50 -68 55 -69 60 -269 181 -411 249 -230 110 -409 163 -721
211 -43 7 -430 16 -436 11z"/>
<path d="M5848 18038 c-147 -109 -375 -285 -388 -298 -3 -3 -50 -41 -105 -85
-55 -44 -111 -90 -125 -101 -14 -12 -88 -75 -165 -140 -77 -65 -149 -128 -161
-139 -12 -11 -54 -49 -95 -85 -344 -305 -744 -708 -1054 -1060 -163 -186 -203
-233 -310 -365 -53 -66 -104 -129 -113 -140 -39 -46 -315 -419 -389 -525 -549
-790 -978 -1632 -1272 -2495 -129 -381 -258 -861 -326 -1220 -16 -83 -56 -315
-60 -350 -3 -22 -7 -47 -10 -55 -2 -8 -7 -40 -10 -70 -3 -30 -8 -62 -10 -70
-2 -8 -7 -44 -10 -80 -4 -36 -8 -76 -10 -90 -2 -14 -6 -54 -10 -90 -3 -36 -8
-81 -10 -100 -4 -34 -14 -156 -20 -250 -23 -310 -23 -941 0 -1210 2 -25 7 -81
10 -125 4 -44 8 -93 10 -110 2 -16 6 -66 10 -110 3 -44 8 -87 10 -95 2 -8 7
-40 10 -70 3 -30 8 -66 10 -80 2 -14 7 -45 10 -70 3 -25 8 -63 12 -85 3 -22 7
-49 9 -60 1 -11 5 -36 9 -55 3 -19 8 -46 10 -60 13 -80 27 -159 35 -190 5 -19
11 -48 14 -65 10 -63 49 -240 80 -365 2 -8 14 -53 26 -100 12 -47 24 -92 26
-100 39 -164 214 -694 275 -835 4 -11 31 -76 60 -145 28 -69 64 -153 80 -188
16 -35 29 -65 29 -68 0 -18 246 -497 293 -571 15 -24 27 -45 27 -48 0 -14 197
-323 308 -483 305 -438 782 -939 1247 -1311 66 -53 122 -98 125 -101 10 -12
327 -238 415 -297 232 -155 600 -370 835 -488 52 -26 115 -57 140 -70 154 -79
628 -281 824 -352 530 -190 1104 -348 1591 -437 17 -3 41 -8 55 -11 78 -14
332 -55 370 -60 25 -3 56 -7 70 -10 14 -2 48 -7 75 -10 28 -3 84 -10 125 -15
41 -5 100 -12 130 -15 30 -3 75 -7 100 -10 25 -3 70 -7 100 -10 58 -4 175 -13
274 -21 291 -23 1113 -23 1351 0 22 3 85 7 140 10 55 4 114 8 130 10 17 2 66
7 110 11 44 3 98 8 120 11 22 2 63 7 90 9 87 10 412 53 455 60 14 3 39 7 55 9
69 11 284 47 330 56 28 6 97 19 155 31 131 25 491 102 628 134 56 14 113 27
125 29 46 9 479 120 647 166 563 156 1124 339 1625 530 153 58 499 198 562
226 28 13 54 24 57 24 3 0 40 16 82 35 41 19 77 35 80 35 2 0 32 13 66 29 35
15 86 39 113 51 282 128 300 137 560 267 212 106 540 278 610 320 11 7 29 16
40 21 74 35 527 304 796 473 290 183 768 511 991 680 32 24 79 60 105 79 227
168 788 628 979 805 6 5 49 44 95 85 46 41 117 107 159 146 41 40 91 86 110
104 194 177 644 640 884 910 76 85 151 169 165 185 15 17 80 93 145 170 65 77
128 151 140 165 11 14 37 45 56 70 19 25 37 47 40 50 29 26 392 499 511 665
35 50 66 92 69 95 3 3 14 19 26 35 11 17 36 53 55 80 20 28 62 88 94 135 111
159 311 465 420 640 59 96 118 191 130 210 44 68 305 519 305 526 0 2 13 25
28 51 16 26 49 86 74 133 25 47 62 117 83 155 21 39 88 169 149 290 l111 220
124 22 c187 34 302 67 486 137 16 6 91 41 165 78 544 268 960 743 1164 1325
44 128 86 304 111 468 10 66 14 456 5 520 -4 33 -11 85 -15 115 -9 74 -48 246
-78 345 -222 726 -806 1312 -1537 1540 -103 32 -276 71 -356 80 -32 4 -68 10
-79 12 -37 10 -439 11 -505 2 -152 -21 -230 -36 -358 -70 -772 -203 -1396
-806 -1629 -1574 -27 -91 -69 -278 -77 -345 -3 -25 -8 -65 -12 -90 -12 -86
-10 -402 3 -509 49 -380 166 -700 372 -1016 25 -38 51 -77 58 -85 86 -109 140
-174 182 -220 28 -30 51 -56 51 -58 0 -2 -20 -40 -44 -85 -24 -45 -67 -127
-96 -182 -83 -157 -138 -256 -233 -420 -133 -228 -287 -480 -348 -567 -10 -15
-19 -30 -19 -33 0 -3 -5 -11 -10 -18 -6 -7 -45 -64 -87 -127 -152 -230 -421
-603 -554 -770 -255 -318 -420 -517 -556 -668 -146 -161 -191 -210 -268 -292
-132 -139 -483 -488 -621 -616 -134 -125 -204 -188 -387 -349 -91 -79 -383
-323 -466 -388 -20 -15 -43 -33 -51 -40 -40 -33 -329 -256 -366 -282 -23 -16
-131 -95 -240 -174 -208 -152 -598 -417 -794 -541 -261 -166 -382 -240 -391
-240 -5 0 -9 -4 -9 -10 0 -5 -4 -10 -10 -10 -5 0 -33 -15 -62 -34 -56 -35
-462 -273 -532 -311 -23 -12 -61 -33 -86 -47 -25 -14 -72 -40 -105 -58 -33
-19 -91 -51 -130 -72 -38 -22 -83 -46 -100 -54 -16 -8 -88 -46 -160 -85 -178
-96 -598 -302 -780 -383 -82 -37 -164 -74 -181 -82 -330 -149 -846 -339 -1339
-494 -211 -67 -700 -194 -895 -234 -298 -61 -370 -75 -395 -79 -269 -46 -478
-77 -600 -92 -27 -3 -68 -8 -90 -10 -143 -18 -205 -24 -415 -40 -47 -3 -101
-8 -120 -10 -219 -25 -1070 -25 -1405 0 -22 1 -87 6 -144 10 -57 3 -111 8
-120 10 -9 1 -56 6 -105 10 -49 4 -96 8 -105 10 -9 1 -45 6 -81 10 -36 3 -76
8 -90 10 -85 12 -110 15 -150 20 -25 3 -99 15 -165 26 -165 27 -163 27 -183
33 -9 3 -33 8 -52 10 -83 11 -565 128 -640 156 -14 5 -79 26 -145 46 -112 34
-385 132 -430 154 -11 5 -72 30 -135 57 -110 45 -456 214 -550 269 -180 104
-372 227 -528 337 -70 49 -306 236 -362 287 -19 17 -58 51 -86 75 -130 112
-391 384 -499 520 -22 28 -45 55 -51 60 -29 25 -212 277 -316 435 -348 528
-633 1114 -801 1650 -40 128 -57 184 -97 330 -14 50 -28 111 -33 140 -3 14
-12 54 -20 90 -16 64 -21 92 -32 160 -4 19 -10 53 -15 75 -5 22 -11 60 -15 85
-3 25 -8 56 -10 70 -2 14 -7 52 -11 85 -3 33 -8 67 -9 76 -2 9 -6 52 -10 95
-3 43 -8 86 -10 94 -22 82 -22 831 -1 948 2 9 7 53 11 97 4 44 9 94 11 110 2
17 6 50 9 75 11 91 16 127 35 235 27 148 29 159 46 240 8 39 17 81 20 95 68
341 264 914 455 1335 100 221 301 608 400 770 10 17 28 46 39 65 11 19 26 44
33 54 6 11 36 58 66 105 94 150 325 491 399 588 136 179 252 328 273 351 8 9
31 37 50 62 33 43 178 214 249 295 168 188 267 293 475 500 253 253 301 299
455 434 52 46 112 99 134 118 39 35 314 257 375 304 33 24 34 26 22 60 -26 72
-102 322 -150 494 -28 99 -55 194 -61 210 -5 17 -16 57 -24 90 -8 33 -22 87
-31 120 -23 83 -105 406 -109 430 -2 11 -18 77 -35 147 -35 144 -67 282 -75
318 -24 123 -62 280 -68 280 -4 0 -80 -55 -170 -122z"/>
</g>
</svg>
